<?xml version="1.0" encoding="utf-8"?>
<svg version="1.1" id="Layer_1" x="0px" y="0px" viewBox="0 0 1682.5 987.7" style="enable-background:new 0 0 1682.5 987.7;" xmlns="http://www.w3.org/2000/svg">
  <style type="text/css">
	.st0{fill:#010101;}
	.st1{fill:#250D0E;}
	.st2{fill:#F3C417;}
	.st3{fill:#1385C8;}
	.st4{fill:#CF3537;}
	.st5{fill:#0B9F49;}
</style>
  <g>
    <path class="st0" d="M873.2,361.8v17.8H736V175.5h134.6v17.8H756.1v73.6h99.8v17h-99.8v77.9H873.2z"/>
    <path class="st0" d="M1054.4,349.7c-19,20.9-40.8,31.3-65.6,31.3c-13.8,0-26.5-3-38.1-8.9c-11.6-5.9-21.7-13.8-30.2-23.6 s-15.2-20.8-20-33.2c-4.8-12.4-7.2-25.1-7.2-38.1c0-13.6,2.4-26.6,7-39.1c4.7-12.5,11.3-23.4,19.7-32.9 c8.4-9.5,18.4-17.1,29.9-22.7c11.5-5.7,24.1-8.5,37.7-8.5c10,0,19.1,1.1,27.3,3.3c8.2,2.2,15.6,5.3,22,9.2 c6.4,3.9,12,8.6,16.7,14.1c4.7,5.5,8.7,11.5,11.9,18L1050,229c-6.7-12.6-15.4-21.9-26.2-27.9c-10.7-5.9-22.9-8.9-36.5-8.9 c-11.3,0-21.5,2.4-30.6,7.2c-9.1,4.8-16.9,11.2-23.3,19.1c-6.4,8-11.4,17.1-14.8,27.3s-5.2,20.8-5.2,31.8c0,11.5,2,22.4,5.9,32.8 c3.9,10.3,9.3,19.4,16.3,27.2c6.9,7.8,15,13.9,24.3,18.5c9.3,4.6,19.4,6.9,30.3,6.9c11.7,0,22.9-2.7,33.5-8.2s20.9-14.1,30.6-26 v-33.9h-45.4v-15.5h62.4v100.4h-17V349.7z"/>
    <path class="st0" d="M1195,381.1c-14.2,0-27.2-2.9-39-8.8c-11.8-5.8-21.9-13.6-30.3-23.3c-8.4-9.7-15-20.7-19.6-33.2 c-4.6-12.5-6.9-25.2-6.9-38.2c0-13.6,2.4-26.6,7.3-39.1c4.9-12.5,11.7-23.5,20.3-33.1c8.6-9.6,18.8-17.2,30.5-22.9 c11.7-5.7,24.3-8.5,38-8.5c14.2,0,27.2,3,39,9.1c11.8,6,21.9,13.9,30.2,23.7c8.3,9.8,14.8,20.8,19.4,33.2c4.6,12.4,6.9,25,6.9,37.8 c0,13.6-2.4,26.6-7.3,39.1c-4.9,12.5-11.6,23.4-20.1,32.9c-8.5,9.5-18.6,17.1-30.3,22.7C1221.2,378.3,1208.6,381.1,1195,381.1z M1119.3,277.6c0,11.1,1.8,21.8,5.5,32.1c3.6,10.3,8.8,19.4,15.5,27.3c6.7,8,14.7,14.3,23.9,19c9.2,4.7,19.5,7,30.8,7 c11.5,0,21.9-2.5,31.3-7.5c9.4-5,17.4-11.5,23.9-19.6c6.5-8,11.5-17.2,15.1-27.3c3.6-10.2,5.3-20.5,5.3-31.1 c0-11.1-1.9-21.8-5.6-32.1c-3.7-10.3-9-19.3-15.7-27.2c-6.7-7.9-14.7-14.1-23.9-18.8c-9.2-4.7-19.4-7-30.5-7 c-11.5,0-22,2.4-31.4,7.3c-9.4,4.9-17.4,11.4-23.9,19.4c-6.5,8.1-11.5,17.2-15.1,27.3C1121.1,256.7,1119.3,267,1119.3,277.6z"/>
    <path class="st0" d="M1328.7,379.7V175.5h20.1v204.2H1328.7z"/>
  </g>
  <g>
    <path class="st0" d="M771.8,496.8v7.5h-36.9v-53.8h36.2v7.5h-27.7v15.3h24v7h-24v16.4H771.8z"/>
    <path class="st0" d="M790.3,505.1c-4.2,0-7.3-1.4-9.4-4.1c-2.1-2.7-3.2-6.7-3.2-12.1v-24.2h8.3v22.6c0,7.1,2.5,10.7,7.6,10.7 c2.4,0,4.6-0.7,6.7-2.2c2.1-1.5,3.8-3.6,4.9-6.4v-24.7h8.3v29.8c0,1,0.2,1.6,0.5,2c0.3,0.4,0.9,0.6,1.8,0.7v7.1 c-0.9,0.2-1.6,0.3-2.1,0.3c-0.6,0-1.1,0.1-1.6,0.1c-1.5,0-2.8-0.4-3.9-1.2c-1.1-0.8-1.6-1.9-1.7-3.2l-0.1-3.9 c-1.8,2.9-4.1,5.1-6.9,6.6C796.7,504.3,793.6,505.1,790.3,505.1z"/>
    <path class="st0" d="M846.5,471.9c-3.2,0.1-6.1,0.8-8.6,2.2c-2.5,1.4-4.3,3.4-5.3,5.9v24.2h-8.3v-39.6h7.7v8.9 c1.4-2.7,3.1-4.9,5.3-6.6c2.2-1.6,4.6-2.5,7.1-2.7c0.5,0,0.9,0,1.3,0c0.3,0,0.6,0,0.9,0.1V471.9z"/>
    <path class="st0" d="M868.4,505.1c-3.1,0-5.9-0.6-8.4-1.7c-2.5-1.1-4.6-2.6-6.4-4.5c-1.8-1.9-3.1-4.1-4.1-6.6 c-1-2.5-1.4-5.1-1.4-7.8c0-2.7,0.5-5.3,1.4-7.8c1-2.5,2.3-4.7,4.1-6.6c1.8-1.9,3.9-3.4,6.4-4.5c2.5-1.1,5.3-1.7,8.4-1.7 s5.9,0.6,8.4,1.7c2.5,1.1,4.6,2.6,6.4,4.5c1.8,1.9,3.2,4.1,4.1,6.6c1,2.5,1.4,5.1,1.4,7.8c0,2.7-0.5,5.3-1.4,7.8 c-1,2.5-2.3,4.7-4.1,6.6c-1.8,1.9-3.9,3.4-6.4,4.5C874.2,504.5,871.4,505.1,868.4,505.1z M856.5,484.6c0,1.9,0.3,3.7,0.9,5.3 c0.6,1.6,1.4,3,2.5,4.2c1.1,1.2,2.3,2.1,3.7,2.8c1.4,0.7,3,1,4.7,1c1.7,0,3.2-0.3,4.7-1c1.4-0.7,2.7-1.6,3.7-2.8 c1.1-1.2,1.9-2.6,2.5-4.2c0.6-1.6,0.9-3.4,0.9-5.3c0-1.9-0.3-3.6-0.9-5.3c-0.6-1.6-1.4-3.1-2.5-4.3c-1.1-1.2-2.3-2.2-3.7-2.8 c-1.4-0.7-3-1-4.7-1c-1.6,0-3.1,0.4-4.6,1.1c-1.4,0.7-2.7,1.7-3.8,2.9c-1.1,1.2-1.9,2.6-2.5,4.3C856.9,481,856.5,482.8,856.5,484.6 z"/>
    <path class="st0" d="M918.7,505.1c-3.2,0-6-0.8-8.4-2.3c-2.4-1.5-4.4-3.5-5.8-5.9v23.6h-8.3v-55.8h7.4v7.1c1.5-2.4,3.5-4.3,5.9-5.7 c2.4-1.4,5.1-2.1,8.1-2.1c2.7,0,5.2,0.6,7.5,1.7c2.3,1.1,4.2,2.6,5.9,4.5c1.7,1.9,3,4,3.9,6.5c0.9,2.5,1.4,5.1,1.4,7.8 c0,2.9-0.4,5.6-1.3,8.1c-0.9,2.5-2.1,4.7-3.6,6.5c-1.6,1.8-3.4,3.3-5.6,4.4C923.6,504.5,921.2,505.1,918.7,505.1z M915.9,498 c1.8,0,3.4-0.4,4.8-1.1c1.4-0.8,2.7-1.8,3.7-3s1.8-2.7,2.4-4.3c0.6-1.6,0.8-3.3,0.8-5c0-1.8-0.3-3.5-0.9-5.2 c-0.6-1.6-1.5-3-2.6-4.2c-1.1-1.2-2.4-2.2-3.9-2.9c-1.5-0.7-3.2-1.1-4.9-1.1c-1.1,0-2.2,0.2-3.3,0.6c-1.2,0.4-2.2,1-3.3,1.7 c-1,0.7-1.9,1.5-2.6,2.5c-0.8,0.9-1.3,2-1.6,3.1v10.4c0.5,1.2,1.2,2.3,2,3.4c0.8,1.1,1.7,2,2.7,2.7c1,0.8,2,1.4,3.2,1.8 C913.5,497.7,914.7,498,915.9,498z"/>
    <path class="st0" d="M961.7,505.1c-3.1,0-5.9-0.5-8.4-1.6c-2.5-1.1-4.7-2.6-6.5-4.4c-1.8-1.9-3.2-4-4.2-6.5c-1-2.5-1.5-5.1-1.5-7.9 c0-2.8,0.5-5.4,1.5-7.9c1-2.5,2.4-4.7,4.2-6.6c1.8-1.9,4-3.4,6.5-4.5c2.5-1.1,5.4-1.6,8.5-1.6c3.1,0,5.9,0.6,8.4,1.7 c2.5,1.1,4.6,2.6,6.4,4.4c1.8,1.8,3.1,4,4,6.4c0.9,2.4,1.4,5,1.4,7.7c0,0.6,0,1.2-0.1,1.7c-0.1,0.5-0.1,1-0.2,1.3H950 c0.1,1.8,0.6,3.4,1.2,4.8c0.7,1.4,1.6,2.6,2.7,3.7c1.1,1,2.3,1.8,3.7,2.4c1.4,0.6,2.8,0.8,4.4,0.8c1.1,0,2.2-0.1,3.3-0.4 c1.1-0.3,2.1-0.7,3-1.2c0.9-0.5,1.7-1.2,2.4-1.9c0.7-0.8,1.3-1.6,1.7-2.5l7.1,2c-1.4,3-3.6,5.4-6.8,7.3 C969.6,504.1,965.9,505.1,961.7,505.1z M973.8,481.5c-0.2-1.7-0.6-3.2-1.3-4.6c-0.7-1.4-1.5-2.6-2.6-3.6c-1.1-1-2.3-1.8-3.7-2.3 c-1.4-0.6-2.9-0.8-4.5-0.8c-1.6,0-3,0.3-4.4,0.8s-2.6,1.3-3.7,2.3c-1.1,1-1.9,2.2-2.6,3.6c-0.7,1.4-1.1,3-1.2,4.6H973.8z"/>
    <path class="st0" d="M999.4,505.1c-1.9,0-3.7-0.3-5.3-1c-1.7-0.6-3.1-1.5-4.2-2.6c-1.2-1.1-2.1-2.4-2.8-3.9c-0.7-1.5-1-3.2-1-4.9 c0-1.9,0.4-3.6,1.2-5.1c0.8-1.5,2-2.8,3.5-3.9c1.5-1.1,3.3-2,5.3-2.6c2-0.6,4.3-0.9,6.8-0.9c1.9,0,3.7,0.2,5.5,0.5 c1.8,0.3,3.5,0.8,4.9,1.3v-2.7c0-2.9-0.8-5.2-2.5-6.9c-1.7-1.6-4.1-2.5-7.2-2.5c-2.1,0-4.2,0.4-6.3,1.2c-2,0.8-4.2,1.9-6.3,3.4 l-2.6-5.3c5.1-3.4,10.4-5.2,15.9-5.2c5.5,0,9.7,1.4,12.7,4.2c3,2.8,4.5,6.8,4.5,12v14.3c0,1.8,0.7,2.7,2.2,2.7v7.1 c-0.8,0.2-1.5,0.3-2.1,0.3c-0.6,0-1.2,0.1-1.7,0.1c-1.6,0-2.9-0.4-3.8-1.2c-0.9-0.8-1.4-1.8-1.6-3.1l-0.2-2.5 c-1.8,2.3-4,4.1-6.5,5.3C1005.1,504.5,1002.3,505.1,999.4,505.1z M1001.6,498.9c2,0,3.9-0.4,5.7-1.1c1.8-0.7,3.2-1.8,4.2-3.1 c1.1-0.9,1.6-1.9,1.6-2.9v-5.2c-1.4-0.6-2.9-1-4.5-1.3c-1.6-0.3-3.1-0.4-4.7-0.4c-3,0-5.4,0.6-7.3,1.9c-1.9,1.3-2.8,3-2.8,5.1 c0,2,0.7,3.6,2.2,5C997.5,498.3,999.4,498.9,1001.6,498.9z"/>
    <path class="st0" d="M1067.1,504.3h-8.3v-22.2c0-3.7-0.6-6.5-1.8-8.1c-1.2-1.7-2.9-2.5-5.3-2.5c-1.2,0-2.4,0.2-3.6,0.7 c-1.2,0.5-2.4,1.1-3.4,1.9s-2,1.8-2.8,3c-0.8,1.1-1.5,2.4-1.9,3.7v23.6h-8.3v-39.6h7.6v8c1.5-2.7,3.7-4.8,6.6-6.3 c2.9-1.5,6.1-2.3,9.5-2.3c2.4,0,4.3,0.4,5.8,1.3c1.5,0.9,2.7,2,3.6,3.5c0.9,1.5,1.5,3.2,1.9,5.2s0.5,4,0.5,6.2V504.3z"/>
    <path class="st0" d="M1134.2,497.7c-4.5,4.7-9.8,7-15.7,7c-3.6,0-6.9-0.7-10-2.2c-3.1-1.5-5.8-3.5-8-6s-4-5.5-5.3-8.8 c-1.3-3.3-1.9-6.8-1.9-10.5s0.6-7.1,1.9-10.4c1.3-3.3,3.1-6.2,5.3-8.6s5-4.4,8.1-5.9s6.5-2.2,10.2-2.2c5.1,0,9.5,1.1,12.9,3.2 c3.5,2.1,6.1,5,7.9,8.5l-6.5,4.7c-1.5-2.9-3.5-5.1-6.1-6.6s-5.4-2.2-8.5-2.2c-2.5,0-4.8,0.5-6.9,1.6c-2.1,1.1-3.8,2.5-5.3,4.3 c-1.5,1.8-2.6,3.9-3.4,6.2c-0.8,2.4-1.2,4.9-1.2,7.4c0,2.7,0.4,5.3,1.3,7.7c0.9,2.4,2.1,4.4,3.6,6.2c1.5,1.8,3.4,3.2,5.5,4.2 c2.1,1,4.4,1.6,6.9,1.6c2.7,0,5.3-0.6,7.8-1.9s4.9-3.3,7.2-6v-5.8h-11.3v-6.3h18.4v27.2h-7.1V497.7z"/>
    <path class="st0" d="M1150,458.2V449h8.3v9.2H1150z M1150,504.3v-39.6h8.3v39.6H1150z"/>
    <path class="st0" d="M1190.6,471.9c-3.2,0.1-6.1,0.8-8.6,2.2s-4.3,3.4-5.3,5.9v24.2h-8.3v-39.6h7.7v8.9c1.4-2.7,3.1-4.9,5.3-6.6 c2.2-1.6,4.6-2.5,7.1-2.7c0.5,0,0.9,0,1.3,0c0.3,0,0.6,0,0.9,0.1V471.9z"/>
    <path class="st0" d="M1196.7,449h8.3v43.9c0,1.5,0.4,2.6,1.1,3.4c0.8,0.8,1.8,1.2,3.2,1.2c0.6,0,1.2-0.1,1.9-0.3 c0.7-0.2,1.4-0.4,2.1-0.7l1.2,6.5c-1.2,0.6-2.7,1-4.3,1.3c-1.7,0.3-3.1,0.5-4.5,0.5c-2.9,0-5.1-0.8-6.7-2.4 c-1.6-1.6-2.4-3.8-2.4-6.7V449z"/>
    <path class="st0" d="M1233.8,505.1c-3.2,0-6.4-0.5-9.5-1.6c-3.2-1-5.9-2.5-8.1-4.4l3.3-5.3c2.4,1.7,4.7,3,7,3.9 c2.3,0.9,4.7,1.3,7.1,1.3c2.5,0,4.4-0.5,5.9-1.4c1.4-1,2.2-2.3,2.2-4.1c0-1.7-0.8-2.9-2.4-3.6c-1.6-0.8-4.1-1.6-7.6-2.5 c-2.5-0.7-4.6-1.3-6.4-1.9c-1.8-0.6-3.2-1.3-4.3-2.1c-1.1-0.8-1.9-1.7-2.4-2.8c-0.5-1.1-0.8-2.3-0.8-3.9c0-2,0.4-3.8,1.2-5.4 c0.8-1.6,1.9-2.9,3.3-4c1.4-1.1,3-1.9,4.9-2.5c1.9-0.6,3.9-0.8,6.1-0.8c3,0,5.8,0.5,8.3,1.4c2.6,0.9,4.9,2.2,6.9,3.9l-3.6,5 c-3.7-2.9-7.6-4.4-11.7-4.4c-2.1,0-3.9,0.4-5.3,1.3c-1.4,0.9-2.2,2.3-2.2,4.2c0,0.8,0.1,1.5,0.4,2c0.3,0.6,0.8,1,1.5,1.4 c0.7,0.4,1.6,0.8,2.7,1.1c1.1,0.3,2.4,0.7,4,1.1c2.7,0.7,5,1.3,6.9,2c1.9,0.7,3.6,1.4,4.8,2.3c1.3,0.9,2.2,1.9,2.8,3.1 c0.6,1.2,0.9,2.6,0.9,4.3c0,3.8-1.4,6.8-4.3,9S1238.7,505.1,1233.8,505.1z"/>
    <path class="st0" d="M1256.3,466.4v-16.7h7.1v16.7H1256.3z"/>
    <path class="st0" d="M757.2,595.6c-3.8,0-7.3-0.8-10.5-2.3c-3.2-1.5-5.9-3.6-8.1-6.1c-2.3-2.6-4-5.5-5.3-8.8 c-1.2-3.3-1.9-6.6-1.9-10.1c0-3.6,0.6-7,2-10.3c1.3-3.3,3.1-6.2,5.4-8.7c2.3-2.5,5-4.5,8.2-6c3.2-1.5,6.6-2.2,10.3-2.2 c3.8,0,7.3,0.8,10.5,2.4c3.2,1.6,5.9,3.7,8.1,6.3c2.2,2.6,4,5.5,5.2,8.7c1.2,3.3,1.9,6.6,1.9,10c0,3.6-0.6,7-1.9,10.3 c-1.3,3.3-3.1,6.2-5.4,8.7c-2.3,2.5-5.1,4.5-8.2,6C764.3,594.9,760.9,595.6,757.2,595.6z M740.1,568.3c0,2.5,0.4,5,1.2,7.4 c0.8,2.4,2,4.5,3.5,6.3c1.5,1.8,3.3,3.3,5.4,4.4c2.1,1.1,4.5,1.6,7.1,1.6c2.7,0,5.1-0.6,7.2-1.7c2.1-1.1,3.9-2.6,5.3-4.5 c1.5-1.9,2.6-4,3.3-6.3c0.8-2.3,1.1-4.7,1.1-7.1c0-2.6-0.4-5-1.2-7.4c-0.8-2.3-2-4.4-3.5-6.2c-1.5-1.8-3.3-3.2-5.4-4.3 c-2.1-1.1-4.4-1.6-7-1.6c-2.7,0-5.1,0.6-7.3,1.7c-2.1,1.1-3.9,2.6-5.4,4.4c-1.5,1.8-2.6,3.9-3.4,6.2 C740.5,563.5,740.1,565.9,740.1,568.3z"/>
    <path class="st0" d="M790.8,539.9h8.3v43.9c0,1.5,0.4,2.6,1.1,3.4s1.8,1.2,3.2,1.2c0.6,0,1.2-0.1,1.9-0.3c0.7-0.2,1.4-0.4,2.1-0.7 l1.2,6.5c-1.2,0.6-2.7,1-4.3,1.3c-1.7,0.3-3.1,0.5-4.5,0.5c-2.9,0-5.1-0.8-6.7-2.4c-1.6-1.6-2.4-3.8-2.4-6.7V539.9z"/>
    <path class="st0" d="M814.1,604.6c0.8,0.2,1.5,0.3,2.2,0.4c0.7,0.1,1.3,0.2,1.8,0.2c0.6,0,1.2-0.1,1.7-0.4c0.5-0.3,1-0.8,1.5-1.5 c0.5-0.7,1-1.7,1.5-3c0.5-1.3,1.2-2.9,1.9-5l-16.3-39.6h8.6l12.3,32.3l10.9-32.3h7.9l-18,48.8c-0.8,2.3-2.2,4.2-4.2,5.7 c-2,1.5-4.6,2.3-7.7,2.3c-0.6,0-1.2,0-1.9-0.1c-0.6-0.1-1.4-0.2-2.2-0.5V604.6z"/>
    <path class="st0" d="M914.8,595.2h-8.3V573c0-3.7-0.6-6.4-1.8-8.1c-1.2-1.7-3-2.6-5.3-2.6c-2.4,0-4.5,0.9-6.5,2.6 c-1.9,1.7-3.3,4-4.2,6.8v23.5h-8.3V573c0-3.7-0.6-6.5-1.8-8.1c-1.2-1.7-2.9-2.5-5.2-2.5c-2.4,0-4.5,0.9-6.5,2.6 c-2,1.7-3.4,4-4.2,6.7v23.6h-8.3v-39.6h7.6v8c1.6-2.8,3.6-4.9,6.2-6.4c2.6-1.5,5.5-2.2,8.8-2.2c3.3,0,5.9,0.9,7.8,2.6 c1.9,1.7,3.1,3.9,3.5,6.4c1.7-2.9,3.8-5.2,6.3-6.7c2.5-1.5,5.4-2.3,8.6-2.3c2.3,0,4.3,0.4,5.8,1.3c1.5,0.9,2.8,2.1,3.7,3.5 c0.9,1.5,1.5,3.2,1.9,5.1c0.4,1.9,0.5,4,0.5,6.2V595.2z"/>
    <path class="st0" d="M946.9,596c-3.2,0-6-0.8-8.4-2.3c-2.4-1.5-4.4-3.5-5.8-5.9v23.6h-8.3v-55.8h7.4v7.1c1.5-2.4,3.5-4.3,5.9-5.7 c2.4-1.4,5.1-2.1,8.1-2.1c2.7,0,5.2,0.6,7.5,1.7c2.3,1.1,4.2,2.6,5.9,4.5c1.7,1.9,3,4,3.9,6.5c0.9,2.5,1.4,5.1,1.4,7.8 c0,2.9-0.4,5.6-1.3,8.1c-0.9,2.5-2.1,4.7-3.6,6.5c-1.6,1.8-3.4,3.3-5.6,4.4C951.9,595.4,949.5,596,946.9,596z M944.2,588.9 c1.8,0,3.4-0.4,4.8-1.1c1.4-0.8,2.7-1.8,3.7-3c1-1.3,1.8-2.7,2.4-4.3c0.6-1.6,0.8-3.3,0.8-5c0-1.8-0.3-3.5-0.9-5.2 c-0.6-1.6-1.5-3-2.6-4.2c-1.1-1.2-2.4-2.2-3.9-2.9c-1.5-0.7-3.2-1.1-4.9-1.1c-1.1,0-2.2,0.2-3.3,0.6c-1.2,0.4-2.2,1-3.3,1.7 c-1,0.7-1.9,1.5-2.6,2.5c-0.8,0.9-1.3,2-1.6,3.1v10.4c0.5,1.2,1.2,2.3,2,3.4c0.8,1.1,1.7,2,2.7,2.7c1,0.8,2,1.4,3.2,1.8 C941.8,588.6,943,588.9,944.2,588.9z"/>
    <path class="st0" d="M972,549.1v-9.2h8.3v9.2H972z M972,595.2v-39.6h8.3v39.6H972z"/>
    <path class="st0" d="M1000.8,596c-1.9,0-3.7-0.3-5.3-1c-1.7-0.6-3.1-1.5-4.2-2.6c-1.2-1.1-2.1-2.4-2.8-3.9c-0.7-1.5-1-3.2-1-4.9 c0-1.9,0.4-3.6,1.2-5.1s2-2.8,3.5-3.9c1.5-1.1,3.3-2,5.3-2.6c2-0.6,4.3-0.9,6.8-0.9c1.9,0,3.7,0.2,5.5,0.5c1.8,0.3,3.5,0.8,4.9,1.3 v-2.7c0-2.9-0.8-5.2-2.5-6.9c-1.7-1.6-4.1-2.5-7.2-2.5c-2.1,0-4.2,0.4-6.3,1.2c-2,0.8-4.2,1.9-6.3,3.4l-2.6-5.3 c5.1-3.4,10.4-5.2,15.9-5.2c5.5,0,9.7,1.4,12.7,4.2c3,2.8,4.5,6.8,4.5,12v14.3c0,1.8,0.7,2.7,2.2,2.7v7.1c-0.8,0.2-1.5,0.3-2.1,0.3 c-0.6,0-1.2,0.1-1.7,0.1c-1.6,0-2.9-0.4-3.8-1.2c-0.9-0.8-1.4-1.8-1.6-3.1l-0.2-2.5c-1.8,2.3-4,4.1-6.5,5.3 C1006.6,595.4,1003.8,596,1000.8,596z M1003.1,589.9c2,0,3.9-0.4,5.7-1.1c1.8-0.7,3.2-1.8,4.2-3.1c1.1-0.9,1.6-1.9,1.6-2.9v-5.2 c-1.4-0.6-2.9-1-4.5-1.3c-1.6-0.3-3.1-0.4-4.7-0.4c-3,0-5.4,0.6-7.3,1.9c-1.9,1.3-2.8,3-2.8,5.1c0,2,0.7,3.6,2.2,5 C999,589.2,1000.8,589.9,1003.1,589.9z"/>
    <path class="st0" d="M1049.2,596c-2.7,0-5.1-0.5-7.4-1.6c-2.3-1.1-4.2-2.6-5.9-4.4c-1.7-1.9-3-4.1-3.9-6.6s-1.4-5.2-1.4-8.1 c0-2.8,0.4-5.4,1.3-7.8c0.9-2.5,2.1-4.6,3.7-6.5s3.5-3.3,5.6-4.4c2.1-1.1,4.5-1.6,7.1-1.6c3.2,0,6,0.8,8.4,2.3 c2.4,1.5,4.3,3.5,5.7,5.9v-23.2h8.3v45.5c0,1,0.2,1.6,0.5,2s0.9,0.6,1.8,0.7v7.1c-0.9,0.2-1.5,0.3-2.1,0.3c-0.5,0-1,0.1-1.3,0.1 c-1.7,0-3-0.4-4.1-1.3c-1.1-0.9-1.6-2-1.7-3.3l-0.1-3c-1.5,2.5-3.5,4.4-6,5.8C1055.1,595.3,1052.3,596,1049.2,596z M1051.2,588.9 c1.2,0,2.4-0.2,3.6-0.6c1.2-0.4,2.3-1,3.3-1.7c1-0.7,1.9-1.5,2.6-2.5c0.7-1,1.2-2,1.5-3.1v-10.4c-0.4-1.3-1.1-2.4-1.9-3.5 s-1.8-2-2.8-2.7c-1.1-0.8-2.2-1.3-3.4-1.7c-1.2-0.4-2.4-0.6-3.6-0.6c-1.7,0-3.2,0.4-4.6,1.1c-1.4,0.8-2.6,1.8-3.6,3 c-1,1.3-1.8,2.7-2.4,4.3c-0.6,1.6-0.9,3.3-0.9,5c0,1.8,0.3,3.5,1,5.2c0.6,1.6,1.5,3,2.6,4.2c1.1,1.2,2.4,2.2,3.8,2.9 C1048,588.5,1049.6,588.9,1051.2,588.9z"/>
    <path class="st0" d="M1100,549.1v-9.2h8.3v9.2H1100z M1100,595.2v-39.6h8.3v39.6H1100z"/>
    <path class="st0" d="M1153.9,595.2h-8.3V573c0-3.7-0.6-6.5-1.8-8.1c-1.2-1.7-2.9-2.5-5.3-2.5c-1.2,0-2.4,0.2-3.6,0.7 s-2.4,1.1-3.4,1.9s-2,1.8-2.8,3c-0.8,1.1-1.5,2.4-1.9,3.7v23.6h-8.3v-39.6h7.6v8c1.5-2.7,3.7-4.8,6.6-6.3c2.9-1.5,6.1-2.3,9.5-2.3 c2.4,0,4.3,0.4,5.8,1.3c1.5,0.9,2.7,2,3.6,3.5c0.9,1.5,1.5,3.2,1.9,5.2s0.5,4,0.5,6.2V595.2z"/>
    <path class="st0" d="M1183.3,595.2v-53.8h8.5v53.8H1183.3z"/>
    <path class="st0" d="M1238.4,595.2h-8.3V573c0-3.7-0.6-6.5-1.8-8.1c-1.2-1.7-2.9-2.5-5.3-2.5c-1.2,0-2.4,0.2-3.6,0.7 c-1.2,0.5-2.4,1.1-3.4,1.9c-1.1,0.8-2,1.8-2.8,3s-1.5,2.4-1.9,3.7v23.6h-8.3v-39.6h7.6v8c1.5-2.7,3.7-4.8,6.6-6.3 c2.9-1.5,6.1-2.3,9.5-2.3c2.4,0,4.3,0.4,5.8,1.3c1.5,0.9,2.7,2,3.6,3.5c0.9,1.5,1.5,3.2,1.9,5.2s0.5,4,0.5,6.2V595.2z"/>
    <path class="st0" d="M1250,595.2V563h-5.3v-6.4h5.3V555c0-4.9,1.1-8.8,3.4-11.6c2.3-2.8,5.4-4.2,9.2-4.2c1.6,0,3.2,0.2,4.8,0.6 c1.6,0.4,3.1,1,4.5,1.8l-1.8,6.2c-0.8-0.5-1.7-0.8-2.7-1.1s-2-0.5-3-0.5c-2,0-3.5,0.7-4.5,2.2c-1,1.5-1.6,3.6-1.6,6.4v1.8h10.2v6.4 h-10.2v32.2H1250z"/>
    <path class="st0" d="M1290.5,596c-3.1,0-5.9-0.6-8.4-1.7c-2.5-1.1-4.6-2.6-6.4-4.5c-1.8-1.9-3.1-4.1-4.1-6.6 c-1-2.5-1.4-5.1-1.4-7.8c0-2.7,0.5-5.3,1.4-7.8c1-2.5,2.3-4.7,4.1-6.6c1.8-1.9,3.9-3.4,6.4-4.5s5.3-1.7,8.4-1.7 c3.1,0,5.9,0.6,8.4,1.7c2.5,1.1,4.6,2.6,6.4,4.5c1.8,1.9,3.2,4.1,4.1,6.6c1,2.5,1.4,5.1,1.4,7.8c0,2.7-0.5,5.3-1.4,7.8 c-1,2.5-2.3,4.7-4.1,6.6c-1.8,1.9-3.9,3.4-6.4,4.5C1296.4,595.4,1293.6,596,1290.5,596z M1278.7,575.5c0,1.9,0.3,3.7,0.9,5.3 c0.6,1.6,1.4,3,2.5,4.2c1.1,1.2,2.3,2.1,3.7,2.8c1.4,0.7,3,1,4.7,1c1.7,0,3.2-0.3,4.7-1s2.7-1.6,3.7-2.8c1.1-1.2,1.9-2.6,2.5-4.2 c0.6-1.6,0.9-3.4,0.9-5.3c0-1.9-0.3-3.6-0.9-5.3c-0.6-1.6-1.4-3.1-2.5-4.3c-1.1-1.2-2.3-2.2-3.7-2.8s-3-1-4.7-1 c-1.6,0-3.1,0.4-4.6,1.1c-1.4,0.7-2.7,1.7-3.8,2.9c-1.1,1.2-1.9,2.6-2.5,4.3C1279,571.9,1278.7,573.7,1278.7,575.5z"/>
    <path class="st0" d="M1340.6,562.8c-3.2,0.1-6.1,0.8-8.6,2.2c-2.5,1.4-4.3,3.4-5.3,5.9v24.2h-8.3v-39.6h7.7v8.9 c1.4-2.7,3.1-4.9,5.3-6.6c2.2-1.6,4.6-2.5,7.1-2.7c0.5,0,0.9,0,1.3,0c0.3,0,0.6,0,0.9,0.1V562.8z"/>
    <path class="st0" d="M1407.3,595.2h-8.3V573c0-3.7-0.6-6.4-1.8-8.1c-1.2-1.7-3-2.6-5.3-2.6c-2.4,0-4.5,0.9-6.5,2.6 c-1.9,1.7-3.3,4-4.2,6.8v23.5h-8.3V573c0-3.7-0.6-6.5-1.8-8.1c-1.2-1.7-2.9-2.5-5.2-2.5c-2.4,0-4.5,0.9-6.5,2.6 c-2,1.7-3.4,4-4.2,6.7v23.6h-8.3v-39.6h7.6v8c1.6-2.8,3.6-4.9,6.2-6.4c2.6-1.5,5.5-2.2,8.8-2.2c3.3,0,5.9,0.9,7.8,2.6 c1.9,1.7,3.1,3.9,3.5,6.4c1.7-2.9,3.8-5.2,6.3-6.7c2.5-1.5,5.4-2.3,8.6-2.3c2.3,0,4.3,0.4,5.8,1.3c1.5,0.9,2.8,2.1,3.7,3.5 c0.9,1.5,1.5,3.2,1.9,5.1c0.4,1.9,0.5,4,0.5,6.2V595.2z"/>
    <path class="st0" d="M1427.4,596c-1.9,0-3.7-0.3-5.3-1c-1.7-0.6-3.1-1.5-4.2-2.6c-1.2-1.1-2.1-2.4-2.8-3.9c-0.7-1.5-1-3.2-1-4.9 c0-1.9,0.4-3.6,1.2-5.1s2-2.8,3.5-3.9c1.5-1.1,3.3-2,5.3-2.6c2-0.6,4.3-0.9,6.8-0.9c1.9,0,3.7,0.2,5.5,0.5c1.8,0.3,3.5,0.8,4.9,1.3 v-2.7c0-2.9-0.8-5.2-2.5-6.9c-1.7-1.6-4.1-2.5-7.2-2.5c-2.1,0-4.2,0.4-6.3,1.2c-2,0.8-4.2,1.9-6.3,3.4l-2.6-5.3 c5.1-3.4,10.4-5.2,15.9-5.2c5.5,0,9.7,1.4,12.7,4.2c3,2.8,4.5,6.8,4.5,12v14.3c0,1.8,0.7,2.7,2.2,2.7v7.1c-0.8,0.2-1.5,0.3-2.1,0.3 c-0.6,0-1.2,0.1-1.7,0.1c-1.6,0-2.9-0.4-3.8-1.2c-0.9-0.8-1.4-1.8-1.6-3.1l-0.2-2.5c-1.8,2.3-4,4.1-6.5,5.3 C1433.2,595.4,1430.4,596,1427.4,596z M1429.7,589.9c2,0,3.9-0.4,5.7-1.1c1.8-0.7,3.2-1.8,4.2-3.1c1.1-0.9,1.6-1.9,1.6-2.9v-5.2 c-1.4-0.6-2.9-1-4.5-1.3c-1.6-0.3-3.1-0.4-4.7-0.4c-3,0-5.4,0.6-7.3,1.9c-1.9,1.3-2.8,3-2.8,5.1c0,2,0.7,3.6,2.2,5 C1425.6,589.2,1427.4,589.9,1429.7,589.9z"/>
    <path class="st0" d="M1481.4,593.2c-1.1,0.5-2.5,1.1-4.4,1.7c-1.9,0.6-3.9,1-6,1c-1.3,0-2.5-0.2-3.7-0.5c-1.2-0.4-2.2-0.9-3.1-1.6 c-0.9-0.7-1.6-1.6-2.1-2.8c-0.5-1.1-0.8-2.5-0.8-4.1v-24.8h-5.2v-6.4h5.2v-13h8.3v13h8.6v6.4h-8.6v22.1c0.1,1.4,0.5,2.4,1.3,3.1 c0.8,0.6,1.8,0.9,2.9,0.9c1.2,0,2.3-0.2,3.3-0.6c1.1-0.4,1.8-0.7,2.4-1L1481.4,593.2z"/>
    <path class="st0" d="M1487.2,549.1v-9.2h8.3v9.2H1487.2z M1487.2,595.2v-39.6h8.3v39.6H1487.2z"/>
    <path class="st0" d="M1502.9,575.4c0-2.8,0.5-5.4,1.4-7.9c1-2.5,2.3-4.6,4.1-6.5c1.8-1.9,4-3.3,6.5-4.4c2.5-1.1,5.4-1.6,8.5-1.6 c4.1,0,7.6,0.9,10.6,2.7c3,1.8,5.2,4.2,6.6,7.2l-8.1,2.6c-1-1.7-2.2-3-3.9-3.9c-1.6-0.9-3.4-1.4-5.4-1.4c-1.7,0-3.2,0.3-4.7,1 c-1.4,0.7-2.7,1.6-3.7,2.8c-1.1,1.2-1.9,2.6-2.5,4.2c-0.6,1.6-0.9,3.4-0.9,5.4c0,1.9,0.3,3.7,0.9,5.3c0.6,1.6,1.5,3.1,2.6,4.3 s2.4,2.2,3.8,2.8c1.4,0.7,3,1,4.6,1c1,0,2-0.1,3-0.4c1-0.3,1.9-0.7,2.8-1.2c0.8-0.5,1.6-1.1,2.2-1.7c0.6-0.7,1.1-1.4,1.4-2.1 l8.2,2.4c-1.3,3-3.5,5.4-6.6,7.3c-3.1,1.9-6.7,2.8-10.9,2.8c-3.1,0-5.9-0.6-8.4-1.7c-2.5-1.1-4.7-2.6-6.5-4.5 c-1.8-1.9-3.2-4.1-4.2-6.6C1503.4,580.8,1502.9,578.2,1502.9,575.4z"/>
    <path class="st0" d="M1562.2,596c-3.2,0-6.4-0.5-9.5-1.6c-3.2-1-5.9-2.5-8.1-4.4l3.3-5.3c2.4,1.7,4.7,3,7,3.9 c2.3,0.9,4.7,1.3,7.1,1.3c2.5,0,4.4-0.5,5.9-1.4s2.2-2.3,2.2-4.1c0-1.7-0.8-2.9-2.4-3.6c-1.6-0.8-4.1-1.6-7.6-2.5 c-2.5-0.7-4.6-1.3-6.4-1.9c-1.8-0.6-3.2-1.3-4.3-2.1c-1.1-0.8-1.9-1.7-2.4-2.8c-0.5-1.1-0.8-2.3-0.8-3.9c0-2,0.4-3.8,1.2-5.4 c0.8-1.6,1.9-2.9,3.3-4c1.4-1.1,3-1.9,4.9-2.5c1.9-0.6,3.9-0.8,6.1-0.8c3,0,5.8,0.5,8.3,1.4c2.6,0.9,4.9,2.2,6.9,3.9l-3.6,5 c-3.7-2.9-7.6-4.4-11.7-4.4c-2.1,0-3.9,0.4-5.3,1.3c-1.4,0.9-2.2,2.3-2.2,4.2c0,0.8,0.1,1.5,0.4,2c0.3,0.6,0.8,1,1.5,1.4 c0.7,0.4,1.6,0.8,2.7,1.1c1.1,0.3,2.4,0.7,4,1.1c2.7,0.7,5,1.3,6.9,2c1.9,0.7,3.6,1.4,4.8,2.3c1.3,0.9,2.2,1.9,2.8,3.1 c0.6,1.2,0.9,2.6,0.9,4.3c0,3.8-1.4,6.8-4.3,9C1571,594.9,1567.1,596,1562.2,596z"/>
    <path class="st0" d="M773.7,728h-19.2v49.1h-5.3V728h-19.2v-4.7h43.6V728z"/>
    <path class="st0" d="M813.9,777.1h-5.2v-22c0-4.5-0.8-7.9-2.3-10.1c-1.5-2.2-3.8-3.3-6.8-3.3c-1.5,0-2.9,0.3-4.4,0.9 c-1.4,0.6-2.8,1.4-4.1,2.4c-1.3,1-2.4,2.2-3.3,3.6c-0.9,1.4-1.6,2.8-2.1,4.5v24.2h-5.1v-55.3h5.1v24.8c1.6-3,3.7-5.3,6.5-7 c2.8-1.7,5.8-2.6,9-2.6c2.3,0,4.2,0.4,5.8,1.2c1.6,0.8,2.9,2,3.9,3.5c1,1.5,1.7,3.3,2.2,5.4c0.5,2.1,0.7,4.4,0.7,6.9V777.1z"/>
    <path class="st0" d="M841.9,777.8c-2.9,0-5.5-0.5-7.9-1.6c-2.4-1.1-4.5-2.6-6.3-4.5c-1.8-1.9-3.1-4.1-4.1-6.6c-1-2.5-1.5-5.1-1.5-8 c0-2.8,0.5-5.4,1.5-7.8c1-2.4,2.4-4.6,4.1-6.4c1.7-1.8,3.8-3.3,6.2-4.4c2.4-1.1,5.1-1.6,7.9-1.6c2.9,0,5.5,0.5,7.9,1.6 c2.4,1.1,4.5,2.6,6.2,4.4c1.7,1.9,3.1,4,4,6.4c1,2.4,1.4,5,1.4,7.7c0,0.4,0,0.8,0,1.2c0,0.4,0,0.7-0.1,0.8h-33.8 c0.2,2.1,0.6,4.1,1.5,5.9s1.9,3.3,3.2,4.7c1.3,1.3,2.8,2.3,4.5,3.1c1.7,0.7,3.5,1.1,5.4,1.1c1.3,0,2.5-0.2,3.8-0.5 c1.3-0.4,2.4-0.8,3.5-1.4c1.1-0.6,2-1.3,2.9-2.2c0.9-0.9,1.5-1.9,2-2.9l4.5,1.2c-0.6,1.5-1.5,2.8-2.6,4c-1.1,1.2-2.4,2.2-3.9,3.1 c-1.5,0.9-3.1,1.6-4.9,2C845.7,777.6,843.8,777.8,841.9,777.8z M856.5,755.3c-0.2-2.1-0.6-4.1-1.5-5.8c-0.8-1.7-1.9-3.2-3.2-4.5 c-1.3-1.3-2.8-2.2-4.5-3s-3.5-1.1-5.4-1.1c-1.9,0-3.7,0.4-5.5,1.1c-1.7,0.7-3.2,1.7-4.5,3c-1.3,1.3-2.3,2.8-3.1,4.5 c-0.8,1.8-1.2,3.7-1.4,5.8H856.5z"/>
    <path class="st0" d="M895,733.1v43.9h-5.3v-53.8h4.1l35.6,44.8v-44.7h5.3v53.7h-4.6L895,733.1z"/>
    <path class="st0" d="M963.7,777.8c-2.9,0-5.5-0.5-7.9-1.6c-2.4-1.1-4.5-2.6-6.3-4.5c-1.8-1.9-3.1-4.1-4.1-6.6c-1-2.5-1.5-5.1-1.5-8 c0-2.8,0.5-5.4,1.5-7.8c1-2.4,2.4-4.6,4.1-6.4c1.7-1.8,3.8-3.3,6.2-4.4c2.4-1.1,5.1-1.6,7.9-1.6c2.9,0,5.5,0.5,7.9,1.6 c2.4,1.1,4.5,2.6,6.2,4.4c1.7,1.9,3.1,4,4,6.4c1,2.4,1.4,5,1.4,7.7c0,0.4,0,0.8,0,1.2c0,0.4,0,0.7-0.1,0.8h-33.8 c0.2,2.1,0.6,4.1,1.5,5.9c0.8,1.8,1.9,3.3,3.2,4.7c1.3,1.3,2.8,2.3,4.5,3.1c1.7,0.7,3.5,1.1,5.4,1.1c1.3,0,2.5-0.2,3.8-0.5 c1.3-0.4,2.4-0.8,3.5-1.4c1.1-0.6,2-1.3,2.9-2.2c0.9-0.9,1.5-1.9,2-2.9l4.5,1.2c-0.6,1.5-1.5,2.8-2.6,4c-1.1,1.2-2.4,2.2-3.9,3.1 c-1.5,0.9-3.1,1.6-4.9,2C967.4,777.6,965.6,777.8,963.7,777.8z M978.2,755.3c-0.2-2.1-0.6-4.1-1.5-5.8c-0.8-1.7-1.9-3.2-3.2-4.5 c-1.3-1.3-2.8-2.2-4.5-3s-3.5-1.1-5.4-1.1c-1.9,0-3.7,0.4-5.5,1.1c-1.7,0.7-3.2,1.7-4.5,3c-1.3,1.3-2.3,2.8-3.1,4.5 c-0.8,1.8-1.2,3.7-1.4,5.8H978.2z"/>
    <path class="st0" d="M1009.7,775.2c-0.3,0.1-0.7,0.4-1.3,0.6c-0.6,0.3-1.3,0.5-2,0.8c-0.8,0.3-1.6,0.5-2.6,0.7c-1,0.2-2,0.3-3,0.3 c-1.1,0-2.2-0.2-3.2-0.5c-1-0.3-1.9-0.8-2.6-1.4c-0.8-0.6-1.4-1.4-1.8-2.4c-0.4-1-0.7-2.1-0.7-3.3v-28.3H987v-4.1h5.5v-13.3h5.1 v13.3h9.1v4.1h-9.1v26.8c0.1,1.5,0.6,2.5,1.6,3.2c0.9,0.7,2,1,3.2,1c1.5,0,2.8-0.2,3.9-0.7c1.1-0.5,1.8-0.8,2.1-1L1009.7,775.2z"/>
    <path class="st0" d="M1049.4,777.1h-5.2v-22c0-4.5-0.8-7.9-2.3-10.1c-1.5-2.2-3.8-3.3-6.8-3.3c-1.5,0-2.9,0.3-4.4,0.9 c-1.4,0.6-2.8,1.4-4.1,2.4s-2.4,2.2-3.3,3.6c-0.9,1.4-1.6,2.8-2.1,4.5v24.2h-5.1v-55.3h5.1v24.8c1.6-3,3.7-5.3,6.5-7 c2.8-1.7,5.8-2.6,9-2.6c2.3,0,4.2,0.4,5.8,1.2c1.6,0.8,2.9,2,3.9,3.5c1,1.5,1.7,3.3,2.2,5.4c0.5,2.1,0.7,4.4,0.7,6.9V777.1z"/>
    <path class="st0" d="M1077.4,777.8c-2.9,0-5.5-0.5-7.9-1.6c-2.4-1.1-4.5-2.6-6.3-4.5c-1.8-1.9-3.1-4.1-4.1-6.6 c-1-2.5-1.5-5.1-1.5-8c0-2.8,0.5-5.4,1.5-7.8c1-2.4,2.4-4.6,4.1-6.4c1.7-1.8,3.8-3.3,6.2-4.4c2.4-1.1,5.1-1.6,7.9-1.6 c2.9,0,5.5,0.5,7.9,1.6c2.4,1.1,4.5,2.6,6.2,4.4c1.7,1.9,3.1,4,4,6.4c1,2.4,1.4,5,1.4,7.7c0,0.4,0,0.8,0,1.2c0,0.4,0,0.7-0.1,0.8 H1063c0.2,2.1,0.6,4.1,1.5,5.9s1.9,3.3,3.2,4.7c1.3,1.3,2.8,2.3,4.5,3.1c1.7,0.7,3.5,1.1,5.4,1.1c1.3,0,2.5-0.2,3.8-0.5 c1.3-0.4,2.4-0.8,3.5-1.4c1.1-0.6,2-1.3,2.9-2.2c0.9-0.9,1.5-1.9,2-2.9l4.5,1.2c-0.6,1.5-1.5,2.8-2.6,4c-1.1,1.2-2.4,2.2-3.9,3.1 c-1.5,0.9-3.1,1.6-4.9,2C1081.1,777.6,1079.3,777.8,1077.4,777.8z M1091.9,755.3c-0.2-2.1-0.6-4.1-1.5-5.8 c-0.8-1.7-1.9-3.2-3.2-4.5c-1.3-1.3-2.8-2.2-4.5-3c-1.7-0.7-3.5-1.1-5.4-1.1c-1.9,0-3.7,0.4-5.5,1.1s-3.2,1.7-4.5,3 c-1.3,1.3-2.3,2.8-3.1,4.5c-0.8,1.8-1.2,3.7-1.4,5.8H1091.9z"/>
    <path class="st0" d="M1124.5,742.1c-3.5,0.1-6.5,1.1-9.1,2.9c-2.6,1.8-4.4,4.3-5.5,7.5v24.5h-5.1v-39.5h4.8v9.5 c1.5-3,3.4-5.4,5.9-7.1c2.5-1.7,5.1-2.6,8-2.6c0.4,0,0.7,0,1,0.1V742.1z"/>
    <path class="st0" d="M1131.6,721.8h5.1v46.4c0,1.5,0.4,2.6,1.2,3.4c0.8,0.8,1.9,1.2,3.4,1.2c0.6,0,1.2-0.1,2-0.2 c0.8-0.2,1.5-0.4,2.1-0.6l0.9,4.2c-1,0.4-2.1,0.7-3.5,1c-1.4,0.3-2.6,0.4-3.6,0.4c-2.4,0-4.2-0.7-5.6-2c-1.4-1.3-2-3.2-2-5.6V721.8 z"/>
    <path class="st0" d="M1161.9,777.8c-1.9,0-3.6-0.3-5.2-1c-1.6-0.6-3-1.5-4.2-2.6c-1.2-1.1-2.1-2.4-2.8-3.9c-0.7-1.5-1-3.1-1-4.8 c0-1.7,0.4-3.3,1.2-4.8c0.8-1.5,1.9-2.7,3.4-3.8c1.5-1.1,3.2-1.9,5.2-2.5s4.2-0.9,6.7-0.9c2,0,4.1,0.2,6.1,0.5 c2.1,0.4,3.9,0.9,5.5,1.5v-3.6c0-3.5-1-6.2-2.9-8.3c-2-2-4.7-3.1-8.2-3.1c-2,0-4.1,0.4-6.2,1.2c-2.1,0.8-4.3,2-6.4,3.5l-1.8-3.4 c5.1-3.4,10.1-5.2,14.9-5.2c4.9,0,8.8,1.4,11.7,4.2c2.8,2.8,4.2,6.6,4.2,11.5v17.8c0,1.4,0.6,2.1,1.9,2.1v4.5 c-0.9,0.2-1.5,0.2-2,0.2c-1.3,0-2.3-0.3-3.1-1c-0.7-0.7-1.1-1.6-1.2-2.7l-0.1-3.1c-1.8,2.4-4.1,4.2-6.9,5.5 C1168.1,777.2,1165.1,777.8,1161.9,777.8z M1163.1,773.9c2.7,0,5.1-0.5,7.4-1.5c2.2-1,4-2.4,5.1-4c0.5-0.4,0.8-0.9,1-1.5 c0.2-0.5,0.3-1,0.3-1.5V759c-1.7-0.7-3.5-1.2-5.3-1.5c-1.8-0.4-3.7-0.5-5.6-0.5c-3.6,0-6.6,0.8-8.9,2.3c-2.3,1.5-3.4,3.5-3.4,6 c0,1.2,0.3,2.3,0.7,3.4c0.5,1.1,1.1,2,2,2.8c0.8,0.8,1.8,1.4,3,1.9C1160.6,773.7,1161.8,773.9,1163.1,773.9z"/>
    <path class="st0" d="M1226.5,777.1h-5.2v-22c0-4.7-0.7-8.1-2.1-10.2c-1.4-2.1-3.5-3.2-6.4-3.2c-1.5,0-3,0.3-4.5,0.8 s-2.9,1.3-4.2,2.3s-2.4,2.2-3.5,3.6c-1,1.4-1.7,2.9-2.2,4.5v24.2h-5.1v-39.5h4.7v8.9c1.6-2.9,3.9-5.2,6.9-7c3-1.8,6.3-2.7,9.8-2.7 c2.2,0,4,0.4,5.5,1.2c1.5,0.8,2.7,2,3.6,3.4c0.9,1.5,1.6,3.3,2,5.4c0.4,2.1,0.6,4.5,0.6,7V777.1z"/>
    <path class="st0" d="M1253.7,777.8c-2.7,0-5.3-0.6-7.6-1.7c-2.3-1.1-4.3-2.6-6-4.5s-3-4-3.9-6.5c-0.9-2.4-1.4-5-1.4-7.7 c0-2.8,0.5-5.4,1.4-7.9c0.9-2.5,2.2-4.7,3.8-6.6c1.6-1.9,3.5-3.3,5.7-4.4c2.2-1.1,4.6-1.6,7.2-1.6c3.3,0,6.3,0.9,8.9,2.6 c2.6,1.7,4.6,3.9,6.1,6.3v-24.1h5.2v48.6c0,1.4,0.6,2.1,1.8,2.1v4.5c-0.8,0.2-1.4,0.2-1.8,0.2c-1.2,0-2.3-0.4-3.2-1.2 c-0.9-0.8-1.4-1.7-1.4-2.8v-3.9c-1.6,2.6-3.7,4.6-6.4,6.1C1259.3,777.1,1256.6,777.8,1253.7,777.8z M1254.8,773.3 c1.3,0,2.6-0.3,4-0.8c1.4-0.5,2.8-1.2,4.1-2.1c1.3-0.9,2.3-1.9,3.2-3.1c0.9-1.2,1.4-2.5,1.6-3.8v-12.2c-0.5-1.4-1.2-2.6-2.2-3.8 c-1-1.2-2-2.2-3.3-3.1c-1.2-0.9-2.6-1.6-4-2.1c-1.4-0.5-2.8-0.8-4.2-0.8c-2.1,0-4,0.4-5.8,1.4c-1.7,0.9-3.2,2.1-4.4,3.6 c-1.2,1.5-2.2,3.2-2.8,5.1c-0.7,1.9-1,3.9-1,5.9c0,2.1,0.4,4.1,1.1,6.1c0.8,1.9,1.8,3.6,3.1,5c1.3,1.4,2.9,2.6,4.7,3.4 C1250.8,772.9,1252.7,773.3,1254.8,773.3z"/>
    <path class="st0" d="M1297.7,777.8c-3.1,0-6.1-0.5-9-1.5c-2.9-1-5.4-2.5-7.6-4.4l2.4-3.5c2.2,1.8,4.5,3.2,6.8,4.1 c2.3,0.9,4.7,1.4,7.4,1.4c3.2,0,5.7-0.6,7.6-1.9c1.9-1.3,2.8-3.1,2.8-5.5c0-1.1-0.3-2-0.8-2.8c-0.5-0.7-1.2-1.4-2.2-1.9 c-1-0.6-2.2-1-3.7-1.5c-1.5-0.4-3.2-0.9-5.2-1.3c-2.3-0.6-4.2-1.1-5.9-1.7c-1.7-0.6-3-1.2-4.1-1.9c-1.1-0.7-1.9-1.6-2.4-2.6 c-0.5-1-0.8-2.3-0.8-3.9c0-2,0.4-3.7,1.2-5.2c0.8-1.5,1.9-2.8,3.2-3.7c1.3-1,2.9-1.7,4.7-2.2c1.8-0.5,3.7-0.8,5.7-0.8 c3,0,5.8,0.5,8.3,1.5c2.5,1,4.5,2.3,6,3.9l-2.5,3c-1.5-1.5-3.3-2.7-5.3-3.4c-2.1-0.8-4.3-1.1-6.6-1.1c-1.4,0-2.6,0.1-3.8,0.4 c-1.2,0.3-2.2,0.7-3.1,1.3c-0.9,0.6-1.6,1.4-2.1,2.3c-0.5,0.9-0.8,2-0.8,3.3c0,1.1,0.2,1.9,0.5,2.6c0.4,0.7,0.9,1.2,1.7,1.7 c0.8,0.5,1.8,0.9,3.1,1.3c1.2,0.4,2.7,0.8,4.5,1.2c2.5,0.6,4.7,1.2,6.7,1.8c1.9,0.6,3.5,1.3,4.8,2.1c1.3,0.8,2.3,1.8,2.9,2.9 c0.7,1.2,1,2.6,1,4.2c0,3.6-1.4,6.5-4.2,8.6C1306.1,776.8,1302.4,777.8,1297.7,777.8z"/>
    <path d="M 797.947 682.316 L 807.847 682.316 L 807.847 687.146 L 781.437 687.146 L 781.437 682.316 L 792.497 682.316 L 792.497 648.976 C 792.084 649.596 791.37 650.269 790.357 650.996 C 789.344 651.723 788.227 652.399 787.007 653.026 C 785.787 653.646 784.527 654.166 783.227 654.586 C 781.927 654.999 780.784 655.206 779.797 655.206 L 779.797 650.066 C 780.997 650.066 782.31 649.729 783.737 649.056 C 785.164 648.376 786.514 647.596 787.787 646.716 C 789.06 645.836 790.137 645.006 791.017 644.226 C 791.904 643.446 792.397 642.926 792.497 642.666 L 797.947 642.666 L 797.947 682.316 Z M 764.57 687.146 L 731.15 687.146 C 731.15 685.379 731.307 683.599 731.62 681.806 C 731.927 680.019 732.537 678.243 733.45 676.476 C 734.357 674.709 735.654 673.009 737.34 671.376 C 739.027 669.736 741.274 668.189 744.08 666.736 C 745.587 665.956 747.157 665.189 748.79 664.436 C 750.43 663.683 751.937 662.839 753.31 661.906 C 754.684 660.973 755.814 659.923 756.7 658.756 C 757.58 657.583 758.02 656.219 758.02 654.666 C 758.02 653.679 757.8 652.703 757.36 651.736 C 756.92 650.776 756.27 649.919 755.41 649.166 C 754.557 648.413 753.494 647.803 752.22 647.336 C 750.947 646.869 749.454 646.636 747.74 646.636 C 746.027 646.636 744.494 646.883 743.14 647.376 C 741.794 647.869 740.614 648.453 739.6 649.126 C 738.587 649.806 737.717 650.523 736.99 651.276 C 736.264 652.029 735.717 652.639 735.35 653.106 L 731.85 649.286 C 732.164 648.973 732.76 648.403 733.64 647.576 C 734.52 646.743 735.677 645.909 737.11 645.076 C 738.537 644.249 740.21 643.509 742.13 642.856 C 744.05 642.209 746.207 641.886 748.6 641.886 C 750.987 641.886 753.117 642.209 754.99 642.856 C 756.857 643.509 758.44 644.406 759.74 645.546 C 761.034 646.693 762.02 648.006 762.7 649.486 C 763.374 650.966 763.71 652.509 763.71 654.116 C 763.71 656.243 763.244 658.086 762.31 659.646 C 761.377 661.206 760.22 662.556 758.84 663.696 C 757.467 664.843 756 665.816 754.44 666.616 C 752.88 667.423 751.477 668.113 750.23 668.686 C 748.57 669.413 746.947 670.229 745.36 671.136 C 743.78 672.043 742.367 673.043 741.12 674.136 C 739.874 675.229 738.847 676.449 738.04 677.796 C 737.234 679.149 736.83 680.656 736.83 682.316 L 764.57 682.316 L 764.57 687.146 Z M 850.539 668.376 L 827.789 668.376 L 827.789 663.466 L 850.539 663.466 L 850.539 668.376 Z M 914.262 697.036 L 939.882 646.636 L 910.052 646.636 L 910.052 641.726 L 948.302 641.726 L 920.332 697.036 L 914.262 697.036 Z M 970.029 684.576 L 971.589 680.216 C 972.729 680.996 974.196 681.669 975.989 682.236 C 977.783 682.809 979.796 683.096 982.029 683.096 C 984.829 683.096 987.076 682.589 988.769 681.576 C 990.456 680.563 991.739 679.069 992.619 677.096 C 993.506 675.123 994.079 672.696 994.339 669.816 C 994.593 666.929 994.719 663.643 994.719 659.956 L 994.719 631.836 L 1000.179 631.836 L 1000.179 659.956 C 1000.179 664.163 999.983 667.993 999.589 671.446 C 999.203 674.899 998.386 677.846 997.139 680.286 C 995.893 682.733 994.076 684.629 991.689 685.976 C 989.296 687.329 986.076 688.006 982.029 688.006 C 977.356 688.006 973.356 686.863 970.029 684.576 Z M 1024.947 687.926 C 1020.534 687.926 1017.251 686.459 1015.097 683.526 C 1012.937 680.593 1011.857 676.216 1011.857 670.396 L 1011.857 646.556 L 1017.157 646.556 L 1017.157 669.466 C 1017.157 678.653 1020.301 683.246 1026.587 683.246 C 1028.141 683.246 1029.671 682.989 1031.177 682.476 C 1032.684 681.956 1034.074 681.203 1035.347 680.216 C 1036.621 679.229 1037.764 678.059 1038.777 676.706 C 1039.791 675.359 1040.607 673.829 1041.227 672.116 L 1041.227 646.556 L 1046.527 646.556 L 1046.527 680.286 C 1046.527 681.746 1047.151 682.476 1048.397 682.476 L 1048.397 687.146 C 1047.771 687.253 1047.264 687.306 1046.877 687.306 C 1046.484 687.306 1046.211 687.306 1046.057 687.306 C 1044.811 687.253 1043.797 686.809 1043.017 685.976 C 1042.237 685.149 1041.847 684.033 1041.847 682.626 L 1041.847 677.956 C 1040.087 681.123 1037.687 683.576 1034.647 685.316 C 1031.607 687.056 1028.374 687.926 1024.947 687.926 Z M 1058.757 679.746 L 1058.757 630.276 L 1064.047 630.276 L 1064.047 677.956 C 1064.047 679.463 1064.464 680.643 1065.297 681.496 C 1066.131 682.356 1067.301 682.786 1068.807 682.786 C 1069.374 682.786 1070.047 682.706 1070.827 682.546 C 1071.607 682.393 1072.334 682.186 1073.007 681.926 L 1073.947 686.216 C 1072.961 686.629 1071.751 686.966 1070.317 687.226 C 1068.891 687.486 1067.657 687.616 1066.617 687.616 C 1064.177 687.616 1062.257 686.926 1060.857 685.546 C 1059.457 684.173 1058.757 682.239 1058.757 679.746 Z M 1081.188 704.286 L 1081.188 699.606 C 1081.601 699.659 1082.005 699.699 1082.398 699.726 C 1082.785 699.753 1083.161 699.766 1083.528 699.766 C 1084.461 699.766 1085.201 699.636 1085.748 699.376 C 1086.288 699.116 1086.818 698.546 1087.338 697.666 C 1087.858 696.779 1088.445 695.506 1089.098 693.846 C 1089.745 692.186 1090.665 689.953 1091.858 687.146 L 1074.178 646.556 L 1079.628 646.556 L 1094.668 682.236 L 1108.608 646.556 L 1113.668 646.556 L 1092.638 698.906 C 1092.065 700.413 1091.118 701.726 1089.798 702.846 C 1088.471 703.959 1086.665 704.516 1084.378 704.516 C 1083.858 704.516 1083.365 704.503 1082.898 704.476 C 1082.431 704.449 1081.861 704.386 1081.188 704.286 Z M 1171.941 687.146 L 1138.521 687.146 C 1138.521 685.379 1138.677 683.599 1138.991 681.806 C 1139.297 680.019 1139.907 678.243 1140.821 676.476 C 1141.727 674.709 1143.024 673.009 1144.711 671.376 C 1146.397 669.736 1148.644 668.189 1151.451 666.736 C 1152.957 665.956 1154.527 665.189 1156.161 664.436 C 1157.801 663.683 1159.307 662.839 1160.681 661.906 C 1162.054 660.973 1163.184 659.923 1164.071 658.756 C 1164.951 657.583 1165.391 656.219 1165.391 654.666 C 1165.391 653.679 1165.171 652.703 1164.731 651.736 C 1164.291 650.776 1163.641 649.919 1162.781 649.166 C 1161.927 648.413 1160.864 647.803 1159.591 647.336 C 1158.317 646.869 1156.824 646.636 1155.111 646.636 C 1153.397 646.636 1151.864 646.883 1150.511 647.376 C 1149.164 647.869 1147.984 648.453 1146.971 649.126 C 1145.957 649.806 1145.087 650.523 1144.361 651.276 C 1143.634 652.029 1143.087 652.639 1142.721 653.106 L 1139.221 649.286 C 1139.534 648.973 1140.131 648.403 1141.011 647.576 C 1141.891 646.743 1143.047 645.909 1144.481 645.076 C 1145.907 644.249 1147.581 643.509 1149.501 642.856 C 1151.421 642.209 1153.577 641.886 1155.971 641.886 C 1158.357 641.886 1160.487 642.209 1162.361 642.856 C 1164.227 643.509 1165.811 644.406 1167.111 645.546 C 1168.404 646.693 1169.391 648.006 1170.071 649.486 C 1170.744 650.966 1171.081 652.509 1171.081 654.116 C 1171.081 656.243 1170.614 658.086 1169.681 659.646 C 1168.747 661.206 1167.591 662.556 1166.211 663.696 C 1164.837 664.843 1163.371 665.816 1161.811 666.616 C 1160.251 667.423 1158.847 668.113 1157.601 668.686 C 1155.941 669.413 1154.317 670.229 1152.731 671.136 C 1151.151 672.043 1149.737 673.043 1148.491 674.136 C 1147.244 675.229 1146.217 676.449 1145.411 677.796 C 1144.604 679.149 1144.201 680.656 1144.201 682.316 L 1171.941 682.316 L 1171.941 687.146 Z M 1219.064 664.326 C 1219.064 667.753 1218.571 670.906 1217.584 673.786 C 1216.598 676.666 1215.234 679.159 1213.494 681.266 C 1211.754 683.366 1209.691 685.003 1207.304 686.176 C 1204.911 687.343 1202.314 687.926 1199.514 687.926 C 1196.708 687.926 1194.111 687.343 1191.724 686.176 C 1189.331 685.003 1187.264 683.366 1185.524 681.266 C 1183.784 679.159 1182.421 676.666 1181.434 673.786 C 1180.448 670.906 1179.954 667.753 1179.954 664.326 C 1179.954 660.893 1180.448 657.736 1181.434 654.856 C 1182.421 651.976 1183.784 649.483 1185.524 647.376 C 1187.264 645.276 1189.331 643.629 1191.724 642.436 C 1194.111 641.236 1196.708 640.636 1199.514 640.636 C 1202.314 640.636 1204.911 641.236 1207.304 642.436 C 1209.691 643.629 1211.754 645.276 1213.494 647.376 C 1215.234 649.483 1216.598 651.976 1217.584 654.856 C 1218.571 657.736 1219.064 660.893 1219.064 664.326 Z M 1213.694 664.326 C 1213.694 661.519 1213.341 658.973 1212.634 656.686 C 1211.934 654.399 1210.961 652.439 1209.714 650.806 C 1208.468 649.173 1206.974 647.899 1205.234 646.986 C 1203.494 646.079 1201.588 645.626 1199.514 645.626 C 1197.381 645.626 1195.444 646.079 1193.704 646.986 C 1191.964 647.899 1190.471 649.173 1189.224 650.806 C 1187.984 652.439 1187.011 654.399 1186.304 656.686 C 1185.604 658.973 1185.254 661.519 1185.254 664.326 C 1185.254 667.126 1185.604 669.669 1186.304 671.956 C 1187.011 674.243 1187.984 676.203 1189.224 677.836 C 1190.471 679.469 1191.964 680.729 1193.704 681.616 C 1195.444 682.496 1197.381 682.936 1199.514 682.936 C 1201.588 682.936 1203.494 682.496 1205.234 681.616 C 1206.974 680.729 1208.468 679.469 1209.714 677.836 C 1210.961 676.203 1211.934 674.243 1212.634 671.956 C 1213.341 669.669 1213.694 667.126 1213.694 664.326 Z M 1260.197 687.146 L 1226.777 687.146 C 1226.777 685.379 1226.933 683.599 1227.247 681.806 C 1227.553 680.019 1228.163 678.243 1229.077 676.476 C 1229.983 674.709 1231.28 673.009 1232.967 671.376 C 1234.653 669.736 1236.9 668.189 1239.707 666.736 C 1241.213 665.956 1242.783 665.189 1244.417 664.436 C 1246.057 663.683 1247.563 662.839 1248.937 661.906 C 1250.31 660.973 1251.44 659.923 1252.327 658.756 C 1253.207 657.583 1253.647 656.219 1253.647 654.666 C 1253.647 653.679 1253.427 652.703 1252.987 651.736 C 1252.547 650.776 1251.897 649.919 1251.037 649.166 C 1250.183 648.413 1249.12 647.803 1247.847 647.336 C 1246.573 646.869 1245.08 646.636 1243.367 646.636 C 1241.653 646.636 1240.12 646.883 1238.767 647.376 C 1237.42 647.869 1236.24 648.453 1235.227 649.126 C 1234.213 649.806 1233.343 650.523 1232.617 651.276 C 1231.89 652.029 1231.343 652.639 1230.977 653.106 L 1227.477 649.286 C 1227.79 648.973 1228.387 648.403 1229.267 647.576 C 1230.147 646.743 1231.303 645.909 1232.737 645.076 C 1234.163 644.249 1235.837 643.509 1237.757 642.856 C 1239.677 642.209 1241.833 641.886 1244.227 641.886 C 1246.613 641.886 1248.743 642.209 1250.617 642.856 C 1252.483 643.509 1254.067 644.406 1255.367 645.546 C 1256.66 646.693 1257.647 648.006 1258.327 649.486 C 1259 650.966 1259.337 652.509 1259.337 654.116 C 1259.337 656.243 1258.87 658.086 1257.937 659.646 C 1257.003 661.206 1255.847 662.556 1254.467 663.696 C 1253.093 664.843 1251.627 665.816 1250.067 666.616 C 1248.507 667.423 1247.103 668.113 1245.857 668.686 C 1244.197 669.413 1242.573 670.229 1240.987 671.136 C 1239.407 672.043 1237.993 673.043 1236.747 674.136 C 1235.5 675.229 1234.473 676.449 1233.667 677.796 C 1232.86 679.149 1232.457 680.656 1232.457 682.316 L 1260.197 682.316 L 1260.197 687.146 Z M 1296.96 697.036 L 1291.66 697.036 L 1291.66 683.176 L 1265.72 683.176 L 1265.72 678.496 L 1293.38 642.666 L 1296.96 642.666 L 1296.96 678.346 L 1303.81 678.346 L 1303.81 683.176 L 1296.96 683.176 L 1296.96 697.036 Z M 1292.21 650.996 L 1271.33 678.346 L 1292.21 678.346 L 1292.21 650.996 Z" style="white-space: pre; fill: rgb(1, 1, 1);"/>
    <path d="M 1144.753 650.598 L 1111.333 650.598 C 1111.333 648.831 1111.49 647.051 1111.803 645.258 C 1112.11 643.471 1112.72 641.695 1113.633 639.928 C 1114.54 638.161 1115.837 636.461 1117.523 634.828 C 1119.21 633.188 1121.457 631.641 1124.263 630.188 C 1125.77 629.408 1127.34 628.641 1128.973 627.888 C 1130.613 627.135 1132.12 626.291 1133.493 625.358 C 1134.867 624.425 1135.997 623.375 1136.883 622.208 C 1137.763 621.035 1138.203 619.671 1138.203 618.118 C 1138.203 617.131 1137.983 616.155 1137.543 615.188 C 1137.103 614.228 1136.453 613.371 1135.593 612.618 C 1134.74 611.865 1133.677 611.255 1132.403 610.788 C 1131.13 610.321 1129.637 610.088 1127.923 610.088 C 1126.21 610.088 1124.677 610.335 1123.323 610.828 C 1121.977 611.321 1120.797 611.905 1119.783 612.578 C 1118.77 613.258 1117.9 613.975 1117.173 614.728 C 1116.447 615.481 1115.9 616.091 1115.533 616.558 L 1112.033 612.738 C 1112.347 612.425 1112.943 611.855 1113.823 611.028 C 1114.703 610.195 1115.86 609.361 1117.293 608.528 C 1118.72 607.701 1120.393 606.961 1122.313 606.308 C 1124.233 605.661 1126.39 605.338 1128.783 605.338 C 1131.17 605.338 1133.3 605.661 1135.173 606.308 C 1137.04 606.961 1138.623 607.858 1139.923 608.998 C 1141.217 610.145 1142.203 611.458 1142.883 612.938 C 1143.557 614.418 1143.893 615.961 1143.893 617.568 C 1143.893 619.695 1143.427 621.538 1142.493 623.098 C 1141.56 624.658 1140.403 626.008 1139.023 627.148 C 1137.65 628.295 1136.183 629.268 1134.623 630.068 C 1133.063 630.875 1131.66 631.565 1130.413 632.138 C 1128.753 632.865 1127.13 633.681 1125.543 634.588 C 1123.963 635.495 1122.55 636.495 1121.303 637.588 C 1120.057 638.681 1119.03 639.901 1118.223 641.248 C 1117.417 642.601 1117.013 644.108 1117.013 645.768 L 1144.753 645.768 L 1144.753 650.598 Z M 1000.179 631.836 L 994.719 631.836 L 1000.179 631.836 Z M 1064.047 630.276 L 1058.757 630.276 L 1064.047 630.276 Z" style="white-space: pre; fill: rgb(1, 1, 1);" transform="matrix(1, 0, 0, 1, -244.496183, 36.916297)"/>
  </g>
  <path class="st1" d="M473.1,630.4c6.3,0,12.2-1.9,17.1-5.2l18.8,108c-2.3-0.6-4.8-1-7.3-1c-6.2,0-11.9,1.9-16.8,5l-18.7-107.7 C468.4,630.1,470.7,630.4,473.1,630.4z"/>
  <path class="st2" d="M458.7,587.3c3.5-4,8.6-6.7,14.3-6.7c3.6,0,6.9,1,9.7,2.8c5.6,3.3,9.3,9.4,9.3,16.3c0,4.6-1.7,8.7-4.4,12 c-3.5,4.3-8.7,7.1-14.7,7.1c-3.4,0-6.5-1-9.3-2.5c-5.8-3.3-9.8-9.4-9.8-16.5C454,594.9,455.8,590.6,458.7,587.3z"/>
  <path class="st3" d="M232.7,699.8c-6.3,0-12.2-1.9-17.1-5.2l-6.7,38.6c2.3-0.6,4.8-1,7.3-1c6.2,0,11.9,1.9,16.8,5l6.7-38.3 C237.4,699.5,235.1,699.8,232.7,699.8z"/>
  <path class="st4" d="M247.1,656.7c-3.5-4-8.6-6.7-14.3-6.7c-3.6,0-6.9,1-9.7,2.8c-5.6,3.3-9.3,9.4-9.3,16.3c0,4.6,1.7,8.7,4.4,12 c3.5,4.3,8.7,7.1,14.7,7.1c3.4,0,6.5-1,9.3-2.5c5.8-3.3,9.8-9.4,9.8-16.5C251.8,664.3,250,660,247.1,656.7z"/>
  <path class="st2" d="M487,751h0.3l-0.1-0.3c3.5-4.1,8.6-6.7,14.4-6.7c3.5,0,6.8,1,9.6,2.7c5.6,3.3,9.4,9.4,9.4,16.3 c0,10.5-8.5,19-19,19c-5.7,0-10.8-2.6-14.3-6.7c-2.9-3.3-4.7-7.6-4.7-12.4C482.6,758.4,484.3,754.3,487,751z"/>
  <path class="st2" d="M216.3,743.9c5.9,0,11.2,2.8,14.7,7c2.7,3.3,4.4,7.4,4.4,12c0,4.8-1.8,9.1-4.7,12.4c-3.5,4-8.6,6.7-14.3,6.7 c-10.5,0-19-8.5-19-19C197.3,752.5,205.8,743.9,216.3,743.9z"/>
  <path class="st1" d="M473.6,775.4c-1.7-3.8-2.7-8-2.7-12.4c0-4.3,0.9-8.3,2.4-12h-73.7v-35.7c0-22.2-18.1-40.3-40.3-40.3 S319,693.1,319,715.3V751h-73.3c1.6,3.7,2.4,7.7,2.4,12c0,4.4-1,8.6-2.7,12.4H473.6z M375.3,751h-31.9v-35.7 c0-8.8,7.1-15.9,15.9-15.9c8.8,0,15.9,7.1,15.9,15.9V751z"/>
  <g>
    <path class="st2" d="M165.9,188.6c10.5,0,19,8.5,19,19c0,0.9-0.1,1.8-0.3,2.6c-1.3,9.3-9.2,16.4-18.8,16.4 c-8.9,0-16.3-6.1-18.4-14.4c-0.4-1.5-0.6-3-0.6-4.7C146.9,197.1,155.4,188.6,165.9,188.6z"/>
    <path class="st3" d="M219.7,398.2c1.5-9,9.2-15.8,18.5-15.9c0.1,0,0.1,0,0.2,0c10.5,0,19,8.5,19,19c0,10.5-8.5,19-19,19 s-19-8.5-19-19C219.4,400.2,219.5,399.2,219.7,398.2z"/>
    <path class="st3" d="M533,593c1.3-9.3,9.2-16.4,18.8-16.4c8.9,0,16.3,6.1,18.4,14.4c0.4,1.5,0.7,3.1,0.7,4.7c0,10.5-8.5,19-19,19 c-10.5,0-19-8.5-19-19C532.8,594.8,532.9,593.9,533,593z"/>
    <path class="st5" d="M479.3,383c10.5,0,19,8.5,19,19c0,1.1-0.1,2.1-0.3,3.1c-1.5,9-9.2,15.8-18.5,15.9c-0.1,0-0.1,0-0.2,0 c-10.5,0-19-8.5-19-19S468.8,383,479.3,383z"/>
    <path class="st2" d="M358.8,382.8c10.5,0,19,8.5,19,19c0,1.1-0.1,2.1-0.3,3.1c-1.5,9-9.2,15.8-18.5,15.9c-0.1,0-0.1,0-0.2,0 c-10.5,0-19-8.5-19-19S348.3,382.8,358.8,382.8z"/>
    <path class="st5" d="M164.9,575.5c0.9,0,1.7,0.1,2.6,0.3c9.3,1.3,16.4,9.2,16.4,18.8c0,8.9-6.1,16.3-14.4,18.4 c-1.5,0.4-3,0.6-4.7,0.6c-10.5,0-19-8.5-19-19C145.8,584.1,154.4,575.5,164.9,575.5z"/>
    <path class="st2" d="M358.5,503.1c10.5,0,19,8.5,19,19c0,10.5-8.5,19.1-19,19.1c-1.1,0-2.1-0.1-3.1-0.3c-9-1.5-15.8-9.2-15.9-18.5 c0-0.1,0-0.1,0-0.2C339.4,511.6,348,503.1,358.5,503.1z"/>
    <path class="st3" d="M548.2,190.3c1.5-0.4,3.1-0.7,4.7-0.7c10.5,0,19,8.5,19,19c0,10.5-8.5,19-19,19c-0.9,0-1.8-0.1-2.6-0.3 c-9.3-1.3-16.4-9.2-16.4-18.8C533.8,199.8,539.9,192.4,548.2,190.3z"/>
    <path class="st4" d="M359.2,262.1c0.6,0,1.2,0.1,1.8,0.2c9.2,0.9,16.4,8.1,17.1,17.3c0,0.5,0.2,1,0.2,1.5c0,10.5-8.5,19-19,19 c-10.5,0-19-8.5-19-19S348.7,262.1,359.2,262.1z"/>
    <g>
      <path class="st2" d="M522.7,203.3c-26.6-12.5-59.4-7.8-81.4,13.9l-53.4,52.8c-3.1-7.9-9.3-14.2-17.1-17.4l53.4-52.8 c30.4-30,76-35.6,112.1-17C529.2,187.5,524.2,194.8,522.7,203.3z"/>
      <path class="st5" d="M140.1,224.2c4.6,7.1,11.9,12.1,20.5,13.6c-4.4,9.4-6.8,19.7-6.8,30.3c0,19.1,7.4,37.1,21,50.6l53.5,53.5 c-8,2.8-14.5,8.8-18,16.5l-52.8-52.8c-18.1-18.1-28.1-42.2-28.1-67.9C129.4,252.6,133.2,237.7,140.1,224.2z"/>
      <path class="st4" d="M489.4,430.9c8-2.8,14.6-8.8,18-16.5l52.8,52.8c30.2,30.2,36,75.7,17.4,111.8c-4.6-7-11.9-12.1-20.4-13.6 c12.4-26.5,7.6-59.1-14.2-81L489.4,430.9z"/>
      <path class="st1" d="M195.1,599.9c9.4,4.4,19.7,6.8,30.3,6.8c19.1,0,37.1-7.4,50.6-21l53.5-53.5c2.8,8,8.8,14.6,16.5,18L293.3,603 c-18.1,18.1-42.2,28.1-67.8,28.1c-15.6,0-30.5-3.7-44-10.7C188.5,615.8,193.6,608.5,195.1,599.9z"/>
    </g>
    <g>
      <g>
        <path class="st4" d="M330.7,390.7L176.4,236.4c8-2.9,14.4-8.9,17.8-16.7L348,373.6C340.1,376.6,333.8,382.8,330.7,390.7z"/>
        <path class="st5" d="M369.7,373.6l154.4-154.4c2.9,8,8.9,14.4,16.7,17.8L387,390.7C383.9,382.9,377.6,376.6,369.7,373.6z"/>
        <path class="st3" d="M347.7,430L193.6,584.1c-2.9-8-8.9-14.4-16.7-17.8l153.6-153.6C333.6,420.6,339.8,426.9,347.7,430z"/>
        <path class="st1" d="M387.1,412.7l154.2,154.2c-8,2.9-14.4,8.9-17.8,16.7L370,430C377.9,426.9,384.1,420.6,387.1,412.7z"/>
      </g>
    </g>
  </g>
</svg>